<?xml version="1.0" encoding="utf-8"?>
<!-- Generator: Adobe Illustrator 24.0.1, SVG Export Plug-In . SVG Version: 6.00 Build 0)  -->
<svg version="1.1" id="Layer_1" xmlns="http://www.w3.org/2000/svg" xmlns:xlink="http://www.w3.org/1999/xlink" x="0px" y="0px"
	 viewBox="0 0 238.05 99.47" style="enable-background:new 0 0 238.05 99.47;" xml:space="preserve">
<style type="text/css">
	.st0{fill:#FFFFFF;}
	.st1{fill:#29499E;}
</style>
<path class="st0" d="M237.51,81.72v-47.9l-15.48-19.85l0.13,2.51c-0.04-0.04-0.06-0.1-0.1-0.14c-1.65-1.79-3.17-3.02-4.63-3.77
	c-3.16-1.63-6.92-1.56-9.99-0.01c-1.5,0.75-2.86,1.81-4.03,3.14c-1.21,1.36-2.08,2.82-2.58,4.36c-0.14,0.42-0.22,0.9-0.32,1.35
	c-0.14-0.18-0.27-0.37-0.42-0.54l0-0.01c-1.2-1.36-2.54-2.3-3.97-2.79c-1.25-0.43-2.69-0.65-4.29-0.65h-1.43
	c-1.75,0-3.41,0.26-4.94,0.78c-1.7,0.58-3.18,1.56-4.4,2.9c-1.19,1.32-2.02,2.82-2.47,4.48c-0.39,1.44-0.58,3.15-0.58,5.07v26.13
	h-8.35l9.26-34.74l-0.02-18h-24.84v10.5c-0.18-0.22-0.33-0.45-0.52-0.66c-1.29-1.39-2.72-2.3-4.25-2.71
	c-1.25-0.33-2.74-0.49-4.56-0.49c-1.81,0-3.29,0.18-4.53,0.55c-1.48,0.44-2.87,1.38-4.12,2.77c-0.69,0.76-1.27,1.6-1.79,2.46v-0.5
	h-14.16l-0.81-5.03h-11.53v3.65c-0.19-0.23-0.35-0.49-0.55-0.71c-1.29-1.39-2.72-2.31-4.25-2.71c-1.25-0.33-2.74-0.49-4.56-0.49
	c-1.81,0-3.29,0.18-4.53,0.55c-1.48,0.44-2.87,1.38-4.12,2.77c-0.21,0.24-0.38,0.5-0.58,0.75v-1.41c0-1.85-0.26-3.6-0.77-5.22
	c-0.55-1.73-1.43-3.25-2.6-4.51l0,0c-1.22-1.31-2.71-2.28-4.43-2.87c-3.09-1.06-7.06-1.18-9.94,0.24c-1.32,0.66-2.6,1.65-3.79,2.97
	c-1.22,1.35-2.09,2.82-2.6,4.39c-0.48,1.48-0.71,3.11-0.71,5v1.78c-0.31-0.42-0.61-0.85-0.97-1.24c-1.29-1.39-2.72-2.3-4.25-2.71
	c-1.25-0.33-2.74-0.49-4.56-0.49c-1.81,0-3.29,0.18-4.52,0.55c-1.48,0.44-2.87,1.38-4.12,2.77c-0.68,0.75-1.25,1.56-1.76,2.42h-4.34
	v-0.51l-0.16,0.51h-5.1L30.1,30.22c-0.06,0.19-0.12,0.39-0.18,0.6l-4.26-20.36h-9.64V2.13H0.65v9.77H0v52.27l10.92,14.01v9.53h15.31
	V56.04l3.88,9.59l2.73-7.4c0.07-0.18,0.14-0.39,0.23-0.6v28.22l12.34,13.6V81.79h7.55v0.97h14.07v-2.99
	c0.32,0.43,0.63,0.86,1.01,1.28c1.22,1.34,2.57,2.34,4.04,2.98c1.43,0.61,3.02,0.91,4.73,0.91c3.35,0,6.04-1.03,7.99-3.05
	c0.46-0.47,0.86-0.93,1.24-1.38v1.28H96.8v0.97h10.98v4.51h11.84c0.39,2.34,0.72,4.39,1,6.13l0.41,2.56h13.26V81.79h8.82v0.97h10.95
	l0,0.38h25.28c0.53,1.15,1.22,2.21,2.08,3.15c1.25,1.38,2.66,2.35,4.2,2.89c1.38,0.48,2.95,0.71,4.78,0.71
	c1.77,0,3.42-0.18,4.91-0.53c0.62-0.15,1.2-0.35,1.75-0.59l1.62,1.71v-2.64c0.4-0.29,0.78-0.62,1.12-0.98
	c0.79-0.83,1.42-1.81,1.9-2.9c0.41,0.71,0.87,1.38,1.43,1.98c1.68,1.79,3.16,3.06,4.54,3.9c1.61,0.98,3.29,1.48,5,1.48
	c1.69,0,3.29-0.26,4.77-0.79c1.57-0.56,2.96-1.43,4.26-2.7c0.44-0.47,0.81-0.99,1.15-1.54v7.74h15.36V81.72H237.51z M78.41,61.73
	V31.49h7.61v30.23H78.41z M97,39.58V23.12h0.16v16.45H97z M53.15,39.58V23.12h0.16v16.45H53.15z M192.59,27.63v47.62l-0.16-0.17
	V27.63H192.59z M143.3,39.58V23.12h0.16v16.45H143.3z M157.17,38.19h5.32l-5.32,21.93V38.19z M224.95,69.61l0.64,12.11h-1.06
	c0.25-1.37,0.42-2.8,0.42-4.32V69.61z M202.86,59.61v-0.85c0.32,0.31,0.67,0.6,1.06,0.85H202.86z M219.77,48.56
	c-0.95-0.39-1.81-0.61-2.62-0.65c-0.51-0.03-1-0.04-1.49-0.04h-1.12v-6.14h8.95l0.58,11.01l-0.08-0.18
	c-0.34-0.76-0.86-1.49-1.6-2.24C221.64,49.58,220.77,48.98,219.77,48.56z"/>
<g>
	<g>
		<path class="st1" d="M32.99,31.15c-0.36,1.11-0.74,2.94-1.14,5.48c-0.4,2.54-0.64,3.95-0.72,4.25h-2.69
			c-0.52-3.22-1.04-6.46-1.55-9.72l-3.71-17.65h-9.21v71.17h9.22V54.86c0-1.21,0-3.83,0-7.89s0-6.88,0-8.47c0-0.47,0-1.04,0-1.71
			c0-0.66-0.02-1.19-0.06-1.58c0.16,0.56,0.58,2.37,1.25,5.44c0.67,3.07,1.19,5.23,1.55,6.47c1.35,3.35,2.7,6.7,4.05,10.05
			c0.32-0.86,0.79-2.09,1.43-3.7c0.64-1.61,1.09-2.89,1.37-3.83l2.44-7.53c0.31-0.95,0.64-2.26,0.95-3.96
			c0.31-1.7,0.51-2.67,0.6-2.93c0,1.59-0.11,4.81-0.33,9.66c-0.22,4.85-0.33,8.18-0.33,9.98v29.81l6.25,6.89V19.43h-5.59
			L32.99,31.15z"/>
		<g>
			<path class="st1" d="M63.23,19.11c-0.5-1.16-1.2-2.22-2.09-3.19c-0.89-0.97-1.83-1.58-2.8-1.84c-0.98-0.26-2.24-0.39-3.78-0.39
				c-1.51,0-2.73,0.14-3.66,0.42c-0.94,0.28-1.85,0.91-2.74,1.9c-0.9,0.98-1.61,2.08-2.14,3.28c-0.54,1.2-0.8,2.47-0.8,3.8v55.65
				h6.25V49.57h4.53v30.14h7.98V23.1C63.97,21.6,63.72,20.27,63.23,19.11z M56.35,42.62H50.1V20.08h6.25V42.62z"/>
		</g>
		<g>
			<path class="st1" d="M107.08,19.11c-0.5-1.16-1.2-2.22-2.09-3.19c-0.89-0.97-1.83-1.58-2.8-1.84c-0.98-0.26-2.24-0.39-3.78-0.39
				c-1.51,0-2.73,0.14-3.66,0.42c-0.94,0.28-1.85,0.91-2.74,1.9c-0.9,0.98-1.61,2.08-2.14,3.28c-0.54,1.2-0.8,2.47-0.8,3.8v55.65
				h6.25V49.57h4.53v30.14h7.98V23.1C107.82,21.6,107.57,20.27,107.08,19.11z M100.2,42.62h-6.25V20.08h6.25V42.62z"/>
		</g>
		<g>
			<path class="st1" d="M153.38,19.11c-0.5-1.16-1.2-2.22-2.09-3.19c-0.89-0.97-1.83-1.58-2.8-1.84c-0.98-0.26-2.24-0.39-3.78-0.39
				c-1.51,0-2.73,0.14-3.66,0.42c-0.94,0.28-1.85,0.91-2.74,1.9c-0.9,0.98-1.61,2.08-2.14,3.28c-0.54,1.2-0.8,2.47-0.8,3.8v55.65
				h6.25V49.57h4.53v30.14h7.98V23.1C154.13,21.6,153.88,20.27,153.38,19.11z M146.51,42.62h-6.25V20.08h6.25V42.62z"/>
		</g>
		<path class="st1" d="M83.58,5.65c-0.87-0.95-1.93-1.63-3.18-2.06c-1.25-0.43-2.63-0.65-4.14-0.65c-1.31,0-2.46,0.25-3.45,0.74
			c-0.99,0.49-1.95,1.26-2.89,2.29C68.99,7,68.33,8.1,67.96,9.25c-0.38,1.16-0.56,2.51-0.56,4.06v58.87c0,1.37,0.24,2.6,0.74,3.67
			c0.5,1.07,1.21,2.13,2.14,3.16c0.93,1.02,1.93,1.77,2.98,2.22c1.05,0.45,2.23,0.67,3.54,0.67c2.5,0,4.43-0.71,5.8-2.13
			c1.37-1.42,2.3-2.7,2.8-3.86c0.5-1.16,0.74-2.4,0.74-3.74v-7.41h-6.25v10.24h-4.52V10.48h4.52v17.97h6.25V13.32
			c0-1.55-0.21-2.98-0.62-4.29C85.1,7.73,84.45,6.59,83.58,5.65z"/>
		<path class="st1" d="M122.73,37.6c0,1.37,0.21,4.47,0.62,9.31c0.42,4.83,0.63,8.83,0.63,12.01v1.8c-0.6-4.76-1.3-9.63-2.12-14.59
			c-0.81-4.96-1.57-9.8-2.29-14.52l-2.85-17.65h-5.9v70.27h6.25l-0.9-18.94l-0.03-18.24c0,0,0.8,5.62,1.19,8.1
			c0.61,3.89,1.64,10.04,3.07,18.45c1.43,8.42,2.5,14.86,3.21,19.32h7.62V18.98h-8.51V37.6z"/>
		<polygon class="st1" points="169.59,71.22 162.66,71.22 175.87,21.63 175.85,7.07 157.1,7.07 157.1,35.15 165.07,35.15 
			165.07,18.92 170.31,18.92 157.1,73.34 157.1,80.1 178.4,80.1 178.4,59.82 169.59,59.82 		"/>
		<path class="st1" d="M197.81,22.88c-0.85-0.96-1.75-1.61-2.68-1.93c-0.93-0.32-2.03-0.48-3.3-0.48h-1.43
			c-1.43,0-2.75,0.2-3.96,0.61c-1.21,0.41-2.25,1.1-3.12,2.06c-0.87,0.97-1.47,2.04-1.79,3.22c-0.31,1.18-0.48,2.61-0.48,4.28v46.05
			c0,1.46,0.21,2.83,0.63,4.12c0.42,1.29,1.08,2.44,1.99,3.44c0.92,1.01,1.9,1.7,2.95,2.06c1.05,0.37,2.31,0.55,3.78,0.55
			c1.55,0,2.95-0.15,4.2-0.45c1.25-0.3,2.25-0.85,3.01-1.64c0.75-0.79,1.31-1.78,1.67-2.96c0.36-1.18,0.54-2.89,0.54-5.12V30.64
			c0-1.76-0.13-3.25-0.36-4.48C199.21,24.94,198.66,23.85,197.81,22.88z M195.64,82.87l-6.25-6.57V24.58h6.25V82.87z"/>
		<path class="st1" d="M216.04,15.28c-1.13-0.58-2.31-0.87-3.54-0.87c-1.31,0-2.54,0.29-3.69,0.87c-1.15,0.58-2.19,1.39-3.12,2.45
			c-0.94,1.05-1.59,2.14-1.97,3.29c-0.38,1.14-0.57,2.43-0.57,3.9v26.02c0,1.25,0.07,2.27,0.21,3.06c0.14,0.8,0.65,1.65,1.55,2.55
			c0.9,0.9,2.33,1.35,4.32,1.35l3.04-0.19v22.54h-3.39V62.65h-5.72V77.4c0,2.75,0.74,4.91,2.2,6.47c1.47,1.56,2.77,2.69,3.9,3.38
			c1.13,0.69,2.27,1.03,3.42,1.03c1.35,0,2.6-0.21,3.75-0.61c1.15-0.41,2.17-1.04,3.04-1.9c0.91-0.99,1.55-2.2,1.9-3.64
			c0.36-1.44,0.54-3.02,0.54-4.74V57.69c0-0.43,0-0.97,0-1.61c0-0.47-0.07-0.86-0.2-1.16c-0.14-0.3-0.3-0.67-0.49-1.09
			c-0.2-0.43-0.53-0.88-0.99-1.35c-0.47-0.47-1-0.84-1.62-1.1c-0.62-0.26-1.15-0.4-1.61-0.42c-0.46-0.02-0.9-0.04-1.34-0.04h-4.17
			V22.07h4.17v16.62h6.25V24.91c0-2.84-0.69-5-2.08-6.5C218.43,16.9,217.18,15.86,216.04,15.28z"/>
		<polygon class="st1" points="234.46,83.05 234.46,34.87 225.58,23.47 228.71,83.05 		"/>
		<rect x="225.9" y="84.76" class="st1" width="9.27" height="6.23"/>
		<rect x="3.7" y="5.18" class="st1" width="9.27" height="6.23"/>
		<polygon class="st1" points="8.8,14.95 3.05,14.95 3.05,63.13 11.92,74.52 		"/>
	</g>
</g>
</svg>
