<?xml version="1.0" encoding="utf-8"?>
<!-- Generator: Adobe Illustrator 24.0.1, SVG Export Plug-In . SVG Version: 6.00 Build 0)  -->
<svg version="1.1" id="Layer_1" xmlns="http://www.w3.org/2000/svg" xmlns:xlink="http://www.w3.org/1999/xlink" x="0px" y="0px"
	 viewBox="0 0 256 99" style="enable-background:new 0 0 256 99;" xml:space="preserve">
<style type="text/css">
	.st0{fill:#29499E;}
</style>
<g>
	<g>
		<path class="st0" d="M34.62,31.73c-0.39,1.21-0.81,3.2-1.24,5.96c-0.44,2.76-0.7,4.3-0.78,4.63h-2.93
			c-0.56-3.51-1.13-7.03-1.69-10.59L23.93,12.5H13.9v77.52h10.04V57.54c0-1.31,0-4.18,0-8.59s0-7.49,0-9.23c0-0.51,0-1.13,0-1.86
			c0-0.72-0.02-1.3-0.06-1.72c0.17,0.61,0.63,2.58,1.36,5.93c0.73,3.35,1.3,5.7,1.68,7.05c1.47,3.65,2.94,7.3,4.41,10.94
			c0.34-0.93,0.86-2.28,1.56-4.04c0.69-1.75,1.19-3.14,1.49-4.17l2.66-8.2c0.34-1.03,0.69-2.46,1.04-4.31
			c0.34-1.85,0.56-2.91,0.65-3.19c0,1.73-0.12,5.23-0.36,10.52c-0.24,5.28-0.36,8.91-0.36,10.87v32.47l6.81,7.5V18.96h-6.09
			L34.62,31.73z"/>
		<g>
			<path class="st0" d="M67.55,18.61c-0.55-1.26-1.3-2.42-2.27-3.47c-0.97-1.05-1.99-1.72-3.05-2c-1.07-0.28-2.44-0.42-4.12-0.42
				c-1.64,0-2.97,0.16-3.98,0.46c-1.02,0.3-2.01,0.99-2.98,2.07c-0.97,1.07-1.75,2.27-2.34,3.58c-0.58,1.31-0.87,2.69-0.87,4.14
				v60.61h6.8V51.79h4.93v32.83h8.69V22.96C68.36,21.32,68.09,19.87,67.55,18.61z M60.06,44.22h-6.8V19.66h6.8V44.22z"/>
		</g>
		<g>
			<path class="st0" d="M115.31,18.61c-0.55-1.26-1.3-2.42-2.27-3.47c-0.97-1.05-1.99-1.72-3.05-2c-1.07-0.28-2.43-0.42-4.12-0.42
				c-1.64,0-2.97,0.16-3.98,0.46c-1.02,0.3-2.01,0.99-2.98,2.07c-0.97,1.07-1.75,2.27-2.34,3.58c-0.58,1.31-0.87,2.69-0.87,4.14
				v60.61h6.8V51.79h4.93v32.83h8.69V22.96C116.12,21.32,115.85,19.87,115.31,18.61z M107.82,44.22h-6.8V19.66h6.8V44.22z"/>
		</g>
		<g>
			<path class="st0" d="M165.75,18.61c-0.55-1.26-1.3-2.42-2.27-3.47c-0.97-1.05-1.99-1.72-3.05-2c-1.07-0.28-2.44-0.42-4.12-0.42
				c-1.64,0-2.97,0.16-3.98,0.46c-1.02,0.3-2.01,0.99-2.98,2.07c-0.97,1.07-1.75,2.27-2.34,3.58c-0.58,1.31-0.87,2.69-0.87,4.14
				v60.61h6.8V51.79h4.93v32.83h8.69V22.96C166.56,21.32,166.28,19.87,165.75,18.61z M158.25,44.22h-6.8V19.66h6.8V44.22z"/>
		</g>
		<path class="st0" d="M89.72,3.95c-0.95-1.03-2.11-1.78-3.47-2.24C84.89,1.24,83.39,1,81.74,1c-1.42,0-2.68,0.27-3.76,0.81
			c-1.08,0.54-2.13,1.37-3.15,2.49c-1.01,1.12-1.73,2.32-2.14,3.57c-0.41,1.27-0.61,2.74-0.61,4.43v64.12c0,1.49,0.26,2.83,0.81,4
			c0.54,1.17,1.32,2.32,2.33,3.44c1.01,1.12,2.1,1.92,3.24,2.42C79.62,86.76,80.9,87,82.33,87c2.72,0,4.83-0.77,6.32-2.31
			c1.49-1.54,2.51-2.94,3.05-4.21c0.54-1.27,0.81-2.62,0.81-4.07v-8.07h-6.8V79.5h-4.93V9.21h4.93v19.57h6.8V12.3
			c0-1.69-0.23-3.24-0.68-4.67C91.37,6.21,90.67,4.97,89.72,3.95z"/>
		<path class="st0" d="M132.36,38.74c0,1.5,0.23,4.87,0.68,10.14c0.45,5.26,0.68,9.62,0.68,13.08v1.96
			c-0.65-5.19-1.42-10.49-2.31-15.89c-0.88-5.4-1.71-10.68-2.49-15.82L125.81,13h-6.42v76.53h6.81l-0.97-20.63l-0.03-19.87
			c0,0,0.87,6.12,1.3,8.82c0.67,4.24,1.78,10.93,3.34,20.1c1.55,9.17,2.72,16.18,3.5,21.05h8.29V18.47h-9.27V38.74z"/>
		<polygon class="st0" points="183.4,75.36 175.84,75.37 190.23,21.35 190.21,5.49 169.79,5.49 169.79,36.08 178.48,36.08 
			178.48,18.4 184.18,18.4 169.79,77.67 169.79,85.04 193,85.04 193,62.94 183.4,62.94 		"/>
		<path class="st0" d="M214.13,22.71c-0.93-1.05-1.9-1.75-2.92-2.11c-1.01-0.35-2.21-0.52-3.6-0.52h-1.56
			c-1.55,0-2.99,0.22-4.31,0.67c-1.32,0.45-2.45,1.19-3.4,2.24c-0.95,1.05-1.6,2.23-1.95,3.51c-0.34,1.28-0.52,2.84-0.52,4.66v50.15
			c0,1.6,0.23,3.09,0.68,4.49c0.46,1.4,1.18,2.66,2.17,3.75c1,1.1,2.07,1.85,3.21,2.25c1.15,0.4,2.52,0.59,4.12,0.59
			c1.69,0,3.21-0.17,4.57-0.49c1.36-0.33,2.45-0.93,3.27-1.79c0.82-0.86,1.43-1.94,1.82-3.23c0.39-1.29,0.59-3.15,0.59-5.58V31.17
			c0-1.92-0.14-3.54-0.39-4.88C215.66,24.96,215.06,23.77,214.13,22.71z M211.77,88.06l-6.81-7.16V24.57h6.81V88.06z"/>
		<path class="st0" d="M233.99,14.44c-1.23-0.64-2.52-0.95-3.86-0.95c-1.42,0-2.76,0.31-4.02,0.95c-1.25,0.63-2.39,1.52-3.4,2.66
			c-1.02,1.14-1.73,2.34-2.14,3.58c-0.41,1.24-0.62,2.65-0.62,4.24v28.34c0,1.36,0.08,2.47,0.23,3.33c0.15,0.87,0.71,1.79,1.68,2.77
			c0.97,0.98,2.54,1.47,4.7,1.47l3.31-0.21v24.55h-3.7V66.03h-6.22V82.1c0,2.99,0.8,5.34,2.4,7.05c1.6,1.7,3.02,2.93,4.25,3.68
			c1.23,0.75,2.47,1.12,3.72,1.12c1.47,0,2.83-0.22,4.08-0.67c1.26-0.45,2.36-1.14,3.31-2.07c0.99-1.08,1.69-2.4,2.07-3.96
			c0.39-1.57,0.58-3.29,0.58-5.16V60.63c0-0.47,0-1.05,0-1.75c0-0.51-0.07-0.94-0.22-1.27c-0.15-0.33-0.33-0.72-0.54-1.19
			c-0.21-0.47-0.57-0.96-1.08-1.47c-0.51-0.51-1.09-0.91-1.76-1.19c-0.67-0.28-1.25-0.43-1.75-0.46c-0.5-0.02-0.98-0.04-1.46-0.04
			h-4.54V21.83h4.54v18.1h6.81V24.92c0-3.09-0.75-5.45-2.27-7.08C236.6,16.2,235.23,15.07,233.99,14.44z"/>
		<polygon class="st0" points="254.06,88.25 254.06,35.77 244.38,23.36 247.79,88.25 		"/>
		<rect x="244.73" y="90.12" class="st0" width="10.09" height="6.79"/>
		<rect x="2.71" y="3.43" class="st0" width="10.09" height="6.79"/>
		<polygon class="st0" points="8.27,14.08 2,14.08 2,66.55 11.67,78.96 		"/>
	</g>
</g>
</svg>
