<?xml version="1.0" encoding="utf-8"?>
<!-- Generator: Adobe Illustrator 24.0.1, SVG Export Plug-In . SVG Version: 6.00 Build 0)  -->
<svg version="1.1" id="Layer_1" xmlns="http://www.w3.org/2000/svg" xmlns:xlink="http://www.w3.org/1999/xlink" x="0px" y="0px"
	 viewBox="0 0 256 61.62" style="enable-background:new 0 0 256 61.62;" xml:space="preserve">
<style type="text/css">
	.st0{fill:#F5881F;}
	.st1{fill:#FFFFFF;}
	.st2{fill:#29499E;}
</style>
<rect x="0.13" y="49.08" class="st0" width="256" height="1.49"/>
<rect x="0.13" y="15.44" class="st0" width="256" height="29.56"/>
<path class="st1" d="M201.97,50.85V21.19L192.38,8.9l0.08,1.55c-0.02-0.03-0.04-0.06-0.06-0.09c-1.02-1.11-1.96-1.87-2.87-2.33
	c-1.96-1.01-4.28-0.97-6.18-0.01c-0.93,0.47-1.77,1.12-2.49,1.95c-0.75,0.84-1.29,1.75-1.6,2.7c-0.09,0.26-0.13,0.55-0.2,0.84
	c-0.09-0.11-0.17-0.23-0.26-0.34l0,0c-0.75-0.84-1.57-1.42-2.46-1.73c-0.77-0.27-1.67-0.4-2.66-0.4h-0.88
	c-1.08,0-2.11,0.16-3.06,0.48c-1.06,0.36-1.97,0.96-2.72,1.79c-0.74,0.82-1.25,1.75-1.53,2.77c-0.24,0.89-0.36,1.95-0.36,3.14V35.4
	h-5.17l5.73-21.51l-0.02-11.15H150.3v6.5c-0.11-0.13-0.2-0.28-0.32-0.41c-0.8-0.86-1.68-1.43-2.63-1.68c-0.77-0.2-1.7-0.3-2.82-0.3
	c-1.12,0-2.04,0.11-2.8,0.34c-0.92,0.27-1.78,0.85-2.55,1.71c-0.43,0.47-0.78,0.99-1.11,1.53v-0.31h-8.76l-0.5-3.11h-7.14v2.26
	c-0.12-0.14-0.22-0.3-0.34-0.44c-0.8-0.86-1.68-1.43-2.63-1.68c-0.77-0.2-1.7-0.3-2.82-0.3c-1.12,0-2.04,0.11-2.8,0.34
	c-0.92,0.27-1.78,0.85-2.55,1.71c-0.13,0.15-0.24,0.31-0.36,0.46V8.5c0-1.15-0.16-2.23-0.48-3.23c-0.34-1.07-0.88-2.01-1.61-2.79
	l0,0c-0.75-0.81-1.68-1.41-2.74-1.78c-1.91-0.66-4.37-0.73-6.15,0.15c-0.82,0.41-1.61,1.02-2.35,1.84c-0.75,0.84-1.3,1.75-1.61,2.72
	c-0.3,0.91-0.44,1.93-0.44,3.1v1.1c-0.19-0.26-0.38-0.53-0.6-0.77c-0.8-0.86-1.68-1.43-2.63-1.68c-0.77-0.2-1.7-0.3-2.82-0.3
	c-1.12,0-2.04,0.11-2.8,0.34c-0.92,0.27-1.78,0.85-2.55,1.71c-0.42,0.46-0.77,0.97-1.09,1.5h-2.69v-0.31l-0.1,0.31h-3.16l-2.75,8.56
	c-0.04,0.12-0.07,0.24-0.11,0.37l-2.64-12.6h-5.97V1.57h-9.51v6.05h-0.4v32.36l6.76,8.67v5.9h9.48V34.95l2.4,5.94l1.69-4.58
	c0.04-0.11,0.09-0.24,0.14-0.37V53.4l7.64,8.42V50.9h4.67v0.6h8.71v-1.85c0.2,0.27,0.39,0.53,0.62,0.79
	c0.75,0.83,1.59,1.45,2.5,1.84c0.88,0.38,1.87,0.57,2.93,0.57c2.07,0,3.74-0.64,4.95-1.89c0.28-0.29,0.53-0.58,0.77-0.86v0.79h6.67
	v0.6h6.8v2.79h7.33c0.24,1.45,0.45,2.72,0.62,3.79l0.25,1.59h8.21V50.9h5.46v0.6h6.78l0,0.24h15.65c0.33,0.71,0.76,1.37,1.29,1.95
	c0.78,0.86,1.65,1.46,2.6,1.79c0.85,0.3,1.82,0.44,2.96,0.44c1.1,0,2.12-0.11,3.04-0.33c0.38-0.09,0.75-0.21,1.08-0.36l1,1.06v-1.63
	c0.25-0.18,0.48-0.39,0.7-0.61c0.49-0.51,0.88-1.12,1.18-1.79c0.25,0.44,0.54,0.85,0.89,1.22c1.04,1.11,1.96,1.9,2.81,2.41
	c0.99,0.61,2.04,0.91,3.1,0.91c1.05,0,2.04-0.16,2.95-0.49c0.97-0.34,1.84-0.88,2.64-1.67c0.27-0.29,0.5-0.62,0.71-0.95v4.79h9.51
	v-7.63H201.97z M103.47,38.47V19.75h4.71v18.72H103.47z M114.97,24.76V14.57h0.1v10.19H114.97z M87.83,24.76V14.57h0.1v10.19H87.83z
	 M174.16,17.36v29.49l-0.1-0.1V17.36H174.16z M143.64,24.76V14.57h0.1v10.19H143.64z M152.23,23.9h3.3l-3.3,13.58V23.9z
	 M194.19,43.35l0.39,7.5h-0.65c0.16-0.85,0.26-1.73,0.26-2.67V43.35z M180.51,37.16v-0.52c0.2,0.19,0.41,0.37,0.65,0.52H180.51z
	 M190.98,30.32c-0.59-0.24-1.12-0.38-1.62-0.4c-0.32-0.02-0.62-0.02-0.92-0.02h-0.69v-3.8h5.54l0.36,6.82l-0.05-0.11
	c-0.21-0.47-0.53-0.92-0.99-1.39C192.14,30.95,191.6,30.58,190.98,30.32z"/>
<g>
	<g>
		<path class="st2" d="M75.35,19.54c-0.22,0.69-0.46,1.82-0.7,3.39c-0.25,1.57-0.4,2.45-0.45,2.63h-1.67
			c-0.32-1.99-0.64-4-0.96-6.02l-2.3-10.93h-5.7v44.06h5.71V34.22c0-0.75,0-2.37,0-4.89s0-4.26,0-5.24c0-0.29,0-0.64,0-1.06
			c0-0.41-0.01-0.74-0.04-0.98c0.1,0.34,0.36,1.47,0.77,3.37c0.42,1.9,0.74,3.24,0.96,4.01c0.84,2.07,1.67,4.15,2.51,6.22
			c0.2-0.53,0.49-1.29,0.88-2.29c0.39-1,0.68-1.79,0.85-2.37l1.51-4.66c0.19-0.59,0.39-1.4,0.59-2.45c0.19-1.05,0.32-1.66,0.37-1.82
			c0,0.98-0.07,2.97-0.2,5.98c-0.13,3-0.2,5.06-0.2,6.18v18.46l3.87,4.26V12.29h-3.46L75.35,19.54z"/>
		<g>
			<path class="st2" d="M94.07,12.09c-0.31-0.72-0.74-1.38-1.29-1.97c-0.55-0.6-1.13-0.98-1.73-1.14c-0.61-0.16-1.38-0.24-2.34-0.24
				c-0.93,0-1.69,0.09-2.26,0.26c-0.58,0.17-1.14,0.56-1.7,1.18c-0.55,0.61-1,1.29-1.33,2.03c-0.33,0.74-0.5,1.53-0.5,2.35v34.45
				h3.87V30.95h2.8v18.66h4.94V14.56C94.53,13.63,94.37,12.8,94.07,12.09z M89.81,26.64h-3.87V12.69h3.87V26.64z"/>
		</g>
		<g>
			<path class="st2" d="M121.22,12.09c-0.31-0.72-0.74-1.38-1.29-1.97c-0.55-0.6-1.13-0.98-1.73-1.14
				c-0.61-0.16-1.38-0.24-2.34-0.24c-0.93,0-1.69,0.09-2.26,0.26c-0.58,0.17-1.14,0.56-1.69,1.18c-0.55,0.61-1,1.29-1.33,2.03
				c-0.33,0.74-0.5,1.53-0.5,2.35v34.45h3.87V30.95h2.8v18.66h4.94V14.56C121.68,13.63,121.52,12.8,121.22,12.09z M116.96,26.64
				h-3.87V12.69h3.87V26.64z"/>
		</g>
		<g>
			<path class="st2" d="M149.88,12.09c-0.31-0.72-0.74-1.38-1.29-1.97c-0.55-0.6-1.13-0.98-1.73-1.14
				c-0.61-0.16-1.38-0.24-2.34-0.24c-0.93,0-1.69,0.09-2.26,0.26c-0.58,0.17-1.14,0.56-1.7,1.18c-0.55,0.61-1,1.29-1.33,2.03
				c-0.33,0.74-0.5,1.53-0.5,2.35v34.45h3.87V30.95h2.8v18.66h4.94V14.56C150.34,13.63,150.19,12.8,149.88,12.09z M145.63,26.64
				h-3.87V12.69h3.87V26.64z"/>
		</g>
		<path class="st2" d="M106.67,3.75c-0.54-0.59-1.2-1.01-1.97-1.27c-0.78-0.27-1.63-0.4-2.56-0.4c-0.81,0-1.52,0.15-2.14,0.46
			c-0.61,0.31-1.21,0.78-1.79,1.42C97.63,4.59,97.23,5.27,97,5.98c-0.23,0.72-0.35,1.56-0.35,2.52v36.44c0,0.85,0.15,1.61,0.46,2.27
			c0.31,0.66,0.75,1.32,1.33,1.96c0.58,0.63,1.19,1.09,1.84,1.38c0.65,0.28,1.38,0.42,2.19,0.42c1.55,0,2.74-0.44,3.59-1.32
			c0.85-0.88,1.43-1.67,1.73-2.39c0.31-0.72,0.46-1.49,0.46-2.31v-4.59h-3.87v6.34h-2.8V6.74h2.8v11.12h3.87V8.5
			c0-0.96-0.13-1.84-0.38-2.65C107.61,5.04,107.21,4.34,106.67,3.75z"/>
		<path class="st2" d="M130.91,23.53c0,0.85,0.13,2.77,0.39,5.76c0.26,2.99,0.39,5.47,0.39,7.43v1.12
			c-0.37-2.95-0.81-5.96-1.31-9.03c-0.5-3.07-0.97-6.07-1.42-8.99L127.19,8.9h-3.65v43.5h3.87l-0.55-11.72l-0.02-11.29
			c0,0,0.49,3.48,0.74,5.01c0.38,2.41,1.01,6.22,1.9,11.42c0.88,5.21,1.55,9.2,1.99,11.96h4.71V12.01h-5.27V23.53z"/>
		<polygon class="st2" points="159.92,44.35 155.62,44.35 163.8,13.65 163.79,4.63 152.18,4.63 152.18,22.02 157.12,22.02 
			157.12,11.97 160.36,11.97 152.18,45.66 152.18,49.85 165.37,49.85 165.37,37.29 159.92,37.29 		"/>
		<path class="st2" d="M177.39,14.42c-0.53-0.6-1.08-1-1.66-1.2c-0.58-0.2-1.26-0.3-2.04-0.3h-0.88c-0.88,0-1.7,0.13-2.45,0.38
			c-0.75,0.26-1.39,0.68-1.93,1.28c-0.54,0.6-0.91,1.27-1.11,2c-0.19,0.73-0.3,1.61-0.3,2.65v28.51c0,0.91,0.13,1.75,0.39,2.55
			c0.26,0.8,0.67,1.51,1.23,2.13c0.57,0.63,1.18,1.05,1.82,1.28c0.65,0.23,1.43,0.34,2.34,0.34c0.96,0,1.83-0.09,2.6-0.28
			c0.77-0.19,1.4-0.53,1.86-1.02c0.47-0.49,0.81-1.1,1.03-1.83c0.22-0.73,0.34-1.79,0.34-3.17V19.22c0-1.09-0.08-2.01-0.22-2.77
			C178.26,15.7,177.92,15.02,177.39,14.42z M176.04,51.56l-3.87-4.07V15.48h3.87V51.56z"/>
		<path class="st2" d="M188.68,9.72c-0.7-0.36-1.43-0.54-2.19-0.54c-0.81,0-1.57,0.18-2.28,0.54c-0.71,0.36-1.36,0.86-1.93,1.51
			c-0.58,0.65-0.98,1.33-1.22,2.03c-0.23,0.7-0.35,1.51-0.35,2.41v16.11c0,0.77,0.04,1.4,0.13,1.89c0.08,0.49,0.4,1.02,0.96,1.58
			c0.55,0.56,1.44,0.84,2.67,0.84l1.88-0.12v13.96h-2.1V39.04h-3.54v9.13c0,1.7,0.46,3.04,1.36,4.01c0.91,0.97,1.71,1.67,2.42,2.09
			c0.7,0.42,1.4,0.64,2.12,0.64c0.84,0,1.61-0.13,2.32-0.38c0.71-0.25,1.34-0.65,1.88-1.17c0.57-0.61,0.96-1.36,1.18-2.25
			c0.22-0.89,0.33-1.87,0.33-2.93v-12.2c0-0.27,0-0.6,0-1c0-0.29-0.04-0.53-0.12-0.72c-0.09-0.18-0.19-0.41-0.31-0.68
			c-0.12-0.27-0.33-0.54-0.61-0.84c-0.29-0.29-0.62-0.52-1-0.68c-0.38-0.16-0.71-0.25-1-0.26c-0.28-0.01-0.56-0.02-0.83-0.02h-2.58
			V13.92h2.58v10.29h3.87v-8.53c0-1.76-0.43-3.1-1.29-4.03C190.16,10.72,189.38,10.07,188.68,9.72z"/>
		<polygon class="st2" points="200.08,51.67 200.08,21.84 194.58,14.79 196.52,51.67 		"/>
		<rect x="194.78" y="52.73" class="st2" width="5.74" height="3.86"/>
		<rect x="57.21" y="3.46" class="st2" width="5.74" height="3.86"/>
		<polygon class="st2" points="60.37,9.51 56.81,9.51 56.81,39.34 62.31,46.39 		"/>
	</g>
</g>
</svg>
